<mxfile host="app.diagrams.net" modified="2020-12-04T13:52:12.599Z" agent="5.0 (Macintosh; Intel Mac OS X 10_15_7) AppleWebKit/537.36 (KHTML, like Gecko) Chrome/87.0.4280.88 Safari/537.36" etag="PP_7SlcV_civhekDf86H" version="13.10.8" type="github">
  <diagram id="IDEPMYJfhPG-d2_96fUS" name="Page-1">
    <mxGraphModel dx="1698" dy="1019" grid="1" gridSize="10" guides="1" tooltips="1" connect="1" arrows="1" fold="1" page="1" pageScale="1" pageWidth="2336" pageHeight="1654" math="0" shadow="0">
      <root>
        <mxCell id="0" />
        <mxCell id="1" parent="0" />
        <mxCell id="05fd0_lxoppkLTFNW6DU-22" style="edgeStyle=orthogonalEdgeStyle;rounded=0;orthogonalLoop=1;jettySize=auto;html=1;exitX=0;exitY=1;exitDx=0;exitDy=0;entryX=0.5;entryY=0;entryDx=0;entryDy=0;" edge="1" parent="1" source="05fd0_lxoppkLTFNW6DU-1" target="05fd0_lxoppkLTFNW6DU-4">
          <mxGeometry relative="1" as="geometry" />
        </mxCell>
        <mxCell id="05fd0_lxoppkLTFNW6DU-24" style="edgeStyle=orthogonalEdgeStyle;rounded=0;orthogonalLoop=1;jettySize=auto;html=1;exitX=1;exitY=1;exitDx=0;exitDy=0;entryX=0.616;entryY=-0.008;entryDx=0;entryDy=0;entryPerimeter=0;" edge="1" parent="1" source="05fd0_lxoppkLTFNW6DU-1" target="05fd0_lxoppkLTFNW6DU-2">
          <mxGeometry relative="1" as="geometry">
            <Array as="points">
              <mxPoint x="1173" y="160" />
            </Array>
          </mxGeometry>
        </mxCell>
        <mxCell id="05fd0_lxoppkLTFNW6DU-80" style="edgeStyle=orthogonalEdgeStyle;rounded=0;orthogonalLoop=1;jettySize=auto;html=1;exitX=0.25;exitY=1;exitDx=0;exitDy=0;entryX=0.196;entryY=0;entryDx=0;entryDy=0;entryPerimeter=0;" edge="1" parent="1" target="05fd0_lxoppkLTFNW6DU-7">
          <mxGeometry relative="1" as="geometry">
            <mxPoint x="818" y="160" as="sourcePoint" />
            <mxPoint x="759" y="820" as="targetPoint" />
            <Array as="points">
              <mxPoint x="758" y="160" />
              <mxPoint x="758" y="780" />
              <mxPoint x="730" y="780" />
            </Array>
          </mxGeometry>
        </mxCell>
        <mxCell id="05fd0_lxoppkLTFNW6DU-81" style="edgeStyle=orthogonalEdgeStyle;rounded=0;orthogonalLoop=1;jettySize=auto;html=1;exitX=0.25;exitY=1;exitDx=0;exitDy=0;entryX=0;entryY=0.5;entryDx=0;entryDy=0;" edge="1" parent="1" source="05fd0_lxoppkLTFNW6DU-1" target="05fd0_lxoppkLTFNW6DU-8">
          <mxGeometry relative="1" as="geometry">
            <Array as="points">
              <mxPoint x="870" y="160" />
              <mxPoint x="870" y="1010" />
            </Array>
          </mxGeometry>
        </mxCell>
        <mxCell id="05fd0_lxoppkLTFNW6DU-82" style="edgeStyle=orthogonalEdgeStyle;rounded=0;orthogonalLoop=1;jettySize=auto;html=1;exitX=0.25;exitY=1;exitDx=0;exitDy=0;" edge="1" parent="1" source="05fd0_lxoppkLTFNW6DU-1" target="05fd0_lxoppkLTFNW6DU-6">
          <mxGeometry relative="1" as="geometry">
            <Array as="points">
              <mxPoint x="1070" y="160" />
            </Array>
          </mxGeometry>
        </mxCell>
        <mxCell id="05fd0_lxoppkLTFNW6DU-86" style="edgeStyle=orthogonalEdgeStyle;rounded=0;orthogonalLoop=1;jettySize=auto;html=1;exitX=0.25;exitY=1;exitDx=0;exitDy=0;" edge="1" parent="1" source="05fd0_lxoppkLTFNW6DU-1" target="05fd0_lxoppkLTFNW6DU-85">
          <mxGeometry relative="1" as="geometry">
            <Array as="points">
              <mxPoint x="1150" y="160" />
              <mxPoint x="1150" y="780" />
              <mxPoint x="1309" y="780" />
            </Array>
          </mxGeometry>
        </mxCell>
        <mxCell id="05fd0_lxoppkLTFNW6DU-1" value="wait" style="rounded=1;whiteSpace=wrap;html=1;" vertex="1" parent="1">
          <mxGeometry x="700" y="120" width="480" height="40" as="geometry" />
        </mxCell>
        <mxCell id="05fd0_lxoppkLTFNW6DU-26" style="edgeStyle=orthogonalEdgeStyle;rounded=0;orthogonalLoop=1;jettySize=auto;html=1;exitX=0.75;exitY=0;exitDx=0;exitDy=0;entryX=0.75;entryY=1;entryDx=0;entryDy=0;" edge="1" parent="1" source="05fd0_lxoppkLTFNW6DU-2" target="05fd0_lxoppkLTFNW6DU-2">
          <mxGeometry relative="1" as="geometry">
            <mxPoint x="1330" y="520" as="targetPoint" />
          </mxGeometry>
        </mxCell>
        <mxCell id="05fd0_lxoppkLTFNW6DU-30" style="edgeStyle=orthogonalEdgeStyle;rounded=0;orthogonalLoop=1;jettySize=auto;html=1;entryX=1;entryY=0.5;entryDx=0;entryDy=0;" edge="1" parent="1" source="05fd0_lxoppkLTFNW6DU-2" target="05fd0_lxoppkLTFNW6DU-4">
          <mxGeometry relative="1" as="geometry" />
        </mxCell>
        <mxCell id="05fd0_lxoppkLTFNW6DU-41" style="edgeStyle=orthogonalEdgeStyle;rounded=0;orthogonalLoop=1;jettySize=auto;html=1;exitX=1;exitY=0.5;exitDx=0;exitDy=0;entryX=0;entryY=0.75;entryDx=0;entryDy=0;" edge="1" parent="1" source="05fd0_lxoppkLTFNW6DU-3" target="05fd0_lxoppkLTFNW6DU-4">
          <mxGeometry relative="1" as="geometry" />
        </mxCell>
        <mxCell id="05fd0_lxoppkLTFNW6DU-3" value="wait card" style="rounded=1;whiteSpace=wrap;html=1;" vertex="1" parent="1">
          <mxGeometry x="360" y="440" width="102" height="40" as="geometry" />
        </mxCell>
        <mxCell id="05fd0_lxoppkLTFNW6DU-32" style="edgeStyle=orthogonalEdgeStyle;rounded=0;orthogonalLoop=1;jettySize=auto;html=1;entryX=0.5;entryY=0;entryDx=0;entryDy=0;exitX=0;exitY=0.5;exitDx=0;exitDy=0;" edge="1" parent="1" source="05fd0_lxoppkLTFNW6DU-4" target="05fd0_lxoppkLTFNW6DU-3">
          <mxGeometry relative="1" as="geometry">
            <mxPoint x="510" y="319.9999999999998" as="sourcePoint" />
          </mxGeometry>
        </mxCell>
        <mxCell id="05fd0_lxoppkLTFNW6DU-37" style="edgeStyle=orthogonalEdgeStyle;rounded=0;orthogonalLoop=1;jettySize=auto;html=1;exitX=1;exitY=0.75;exitDx=0;exitDy=0;entryX=0.5;entryY=0;entryDx=0;entryDy=0;" edge="1" parent="1" source="05fd0_lxoppkLTFNW6DU-4" target="05fd0_lxoppkLTFNW6DU-5">
          <mxGeometry relative="1" as="geometry">
            <mxPoint x="1491.4285714285713" y="520" as="targetPoint" />
          </mxGeometry>
        </mxCell>
        <mxCell id="05fd0_lxoppkLTFNW6DU-43" style="edgeStyle=orthogonalEdgeStyle;rounded=0;orthogonalLoop=1;jettySize=auto;html=1;exitX=1;exitY=1;exitDx=0;exitDy=0;" edge="1" parent="1" source="05fd0_lxoppkLTFNW6DU-4">
          <mxGeometry relative="1" as="geometry">
            <mxPoint x="826" y="160" as="targetPoint" />
            <Array as="points">
              <mxPoint x="826" y="300" />
            </Array>
          </mxGeometry>
        </mxCell>
        <mxCell id="05fd0_lxoppkLTFNW6DU-46" style="edgeStyle=orthogonalEdgeStyle;rounded=0;orthogonalLoop=1;jettySize=auto;html=1;exitX=0.25;exitY=1;exitDx=0;exitDy=0;entryX=0.5;entryY=0;entryDx=0;entryDy=0;" edge="1" parent="1" source="05fd0_lxoppkLTFNW6DU-4" target="05fd0_lxoppkLTFNW6DU-10">
          <mxGeometry relative="1" as="geometry" />
        </mxCell>
        <mxCell id="05fd0_lxoppkLTFNW6DU-56" style="edgeStyle=orthogonalEdgeStyle;rounded=0;orthogonalLoop=1;jettySize=auto;html=1;exitX=0.25;exitY=1;exitDx=0;exitDy=0;" edge="1" parent="1" source="05fd0_lxoppkLTFNW6DU-4" target="05fd0_lxoppkLTFNW6DU-11">
          <mxGeometry relative="1" as="geometry" />
        </mxCell>
        <mxCell id="05fd0_lxoppkLTFNW6DU-67" style="edgeStyle=orthogonalEdgeStyle;rounded=0;orthogonalLoop=1;jettySize=auto;html=1;exitX=1;exitY=0.75;exitDx=0;exitDy=0;" edge="1" parent="1" source="05fd0_lxoppkLTFNW6DU-4">
          <mxGeometry relative="1" as="geometry">
            <mxPoint x="1520" y="530" as="targetPoint" />
          </mxGeometry>
        </mxCell>
        <mxCell id="05fd0_lxoppkLTFNW6DU-4" value="Asking" style="rounded=1;whiteSpace=wrap;html=1;" vertex="1" parent="1">
          <mxGeometry x="530" y="260" width="150" height="40" as="geometry" />
        </mxCell>
        <mxCell id="05fd0_lxoppkLTFNW6DU-39" style="edgeStyle=orthogonalEdgeStyle;rounded=0;orthogonalLoop=1;jettySize=auto;html=1;exitX=0.75;exitY=0;exitDx=0;exitDy=0;entryX=1;entryY=0.5;entryDx=0;entryDy=0;" edge="1" parent="1" source="05fd0_lxoppkLTFNW6DU-5" target="05fd0_lxoppkLTFNW6DU-1">
          <mxGeometry relative="1" as="geometry" />
        </mxCell>
        <mxCell id="05fd0_lxoppkLTFNW6DU-5" value="Serve item" style="rounded=1;whiteSpace=wrap;html=1;" vertex="1" parent="1">
          <mxGeometry x="1710" y="530" width="102" height="40" as="geometry" />
        </mxCell>
        <mxCell id="05fd0_lxoppkLTFNW6DU-96" style="edgeStyle=orthogonalEdgeStyle;rounded=0;orthogonalLoop=1;jettySize=auto;html=1;exitX=0.5;exitY=0;exitDx=0;exitDy=0;entryX=0.822;entryY=1;entryDx=0;entryDy=0;entryPerimeter=0;" edge="1" parent="1" source="05fd0_lxoppkLTFNW6DU-6" target="05fd0_lxoppkLTFNW6DU-1">
          <mxGeometry relative="1" as="geometry" />
        </mxCell>
        <mxCell id="05fd0_lxoppkLTFNW6DU-6" value="Check Stock" style="rounded=1;whiteSpace=wrap;html=1;" vertex="1" parent="1">
          <mxGeometry x="1020" y="1180" width="148" height="40" as="geometry" />
        </mxCell>
        <mxCell id="05fd0_lxoppkLTFNW6DU-90" style="edgeStyle=orthogonalEdgeStyle;rounded=0;orthogonalLoop=1;jettySize=auto;html=1;exitX=0.75;exitY=0;exitDx=0;exitDy=0;entryX=0.181;entryY=1.05;entryDx=0;entryDy=0;entryPerimeter=0;" edge="1" parent="1" source="05fd0_lxoppkLTFNW6DU-7" target="05fd0_lxoppkLTFNW6DU-1">
          <mxGeometry relative="1" as="geometry" />
        </mxCell>
        <mxCell id="05fd0_lxoppkLTFNW6DU-7" value="Check Sales List" style="rounded=1;whiteSpace=wrap;html=1;" vertex="1" parent="1">
          <mxGeometry x="710" y="820" width="102" height="40" as="geometry" />
        </mxCell>
        <mxCell id="05fd0_lxoppkLTFNW6DU-93" style="edgeStyle=orthogonalEdgeStyle;rounded=0;orthogonalLoop=1;jettySize=auto;html=1;exitX=0.25;exitY=0;exitDx=0;exitDy=0;entryX=0.458;entryY=1;entryDx=0;entryDy=0;entryPerimeter=0;" edge="1" parent="1" source="05fd0_lxoppkLTFNW6DU-8" target="05fd0_lxoppkLTFNW6DU-1">
          <mxGeometry relative="1" as="geometry">
            <Array as="points">
              <mxPoint x="920" y="990" />
            </Array>
          </mxGeometry>
        </mxCell>
        <mxCell id="05fd0_lxoppkLTFNW6DU-8" value="Check Address" style="rounded=1;whiteSpace=wrap;html=1;" vertex="1" parent="1">
          <mxGeometry x="910" y="990" width="102" height="40" as="geometry" />
        </mxCell>
        <mxCell id="05fd0_lxoppkLTFNW6DU-77" style="edgeStyle=orthogonalEdgeStyle;rounded=0;orthogonalLoop=1;jettySize=auto;html=1;entryX=1;entryY=0.75;entryDx=0;entryDy=0;" edge="1" parent="1" source="05fd0_lxoppkLTFNW6DU-9" target="05fd0_lxoppkLTFNW6DU-1">
          <mxGeometry relative="1" as="geometry">
            <mxPoint x="1200" y="150" as="targetPoint" />
            <Array as="points">
              <mxPoint x="1350" y="660" />
              <mxPoint x="1350" y="150" />
            </Array>
          </mxGeometry>
        </mxCell>
        <mxCell id="05fd0_lxoppkLTFNW6DU-9" value="Advance Payment" style="rounded=1;whiteSpace=wrap;html=1;" vertex="1" parent="1">
          <mxGeometry x="1470" y="650" width="102" height="40" as="geometry" />
        </mxCell>
        <mxCell id="05fd0_lxoppkLTFNW6DU-58" style="edgeStyle=orthogonalEdgeStyle;rounded=0;orthogonalLoop=1;jettySize=auto;html=1;exitX=0.25;exitY=1;exitDx=0;exitDy=0;entryX=0;entryY=0.5;entryDx=0;entryDy=0;" edge="1" parent="1" source="05fd0_lxoppkLTFNW6DU-10" target="05fd0_lxoppkLTFNW6DU-12">
          <mxGeometry relative="1" as="geometry" />
        </mxCell>
        <mxCell id="05fd0_lxoppkLTFNW6DU-10" value="Request Stock" style="rounded=1;whiteSpace=wrap;html=1;" vertex="1" parent="1">
          <mxGeometry x="130" y="710" width="102" height="40" as="geometry" />
        </mxCell>
        <mxCell id="05fd0_lxoppkLTFNW6DU-60" style="edgeStyle=orthogonalEdgeStyle;rounded=0;orthogonalLoop=1;jettySize=auto;html=1;exitX=0.75;exitY=1;exitDx=0;exitDy=0;entryX=1;entryY=0.5;entryDx=0;entryDy=0;" edge="1" parent="1" source="05fd0_lxoppkLTFNW6DU-11" target="05fd0_lxoppkLTFNW6DU-12">
          <mxGeometry relative="1" as="geometry" />
        </mxCell>
        <mxCell id="05fd0_lxoppkLTFNW6DU-11" value="Request Sales List" style="rounded=1;whiteSpace=wrap;html=1;" vertex="1" parent="1">
          <mxGeometry x="360" y="710" width="102" height="40" as="geometry" />
        </mxCell>
        <mxCell id="05fd0_lxoppkLTFNW6DU-65" style="edgeStyle=orthogonalEdgeStyle;rounded=0;orthogonalLoop=1;jettySize=auto;html=1;exitX=0;exitY=0.75;exitDx=0;exitDy=0;entryX=0;entryY=0.5;entryDx=0;entryDy=0;" edge="1" parent="1" source="05fd0_lxoppkLTFNW6DU-12" target="05fd0_lxoppkLTFNW6DU-3">
          <mxGeometry relative="1" as="geometry">
            <Array as="points">
              <mxPoint x="20" y="860" />
              <mxPoint x="20" y="460" />
            </Array>
          </mxGeometry>
        </mxCell>
        <mxCell id="05fd0_lxoppkLTFNW6DU-12" value="Request Address" style="rounded=1;whiteSpace=wrap;html=1;" vertex="1" parent="1">
          <mxGeometry x="250" y="830" width="102" height="40" as="geometry" />
        </mxCell>
        <mxCell id="05fd0_lxoppkLTFNW6DU-19" style="edgeStyle=orthogonalEdgeStyle;rounded=0;orthogonalLoop=1;jettySize=auto;html=1;exitX=0.5;exitY=1;exitDx=0;exitDy=0;entryX=0.5;entryY=0;entryDx=0;entryDy=0;" edge="1" parent="1" source="05fd0_lxoppkLTFNW6DU-18" target="05fd0_lxoppkLTFNW6DU-1">
          <mxGeometry relative="1" as="geometry" />
        </mxCell>
        <mxCell id="05fd0_lxoppkLTFNW6DU-18" value="" style="ellipse;whiteSpace=wrap;html=1;" vertex="1" parent="1">
          <mxGeometry x="946" y="90" width="10" height="10" as="geometry" />
        </mxCell>
        <mxCell id="05fd0_lxoppkLTFNW6DU-21" value="&lt;font style=&quot;font-size: 10px&quot;&gt;Enable &quot;Wait&quot;&lt;/font&gt;" style="text;html=1;strokeColor=none;fillColor=none;align=center;verticalAlign=middle;whiteSpace=wrap;rounded=0;" vertex="1" parent="1">
          <mxGeometry x="961" y="90" width="80" height="20" as="geometry" />
        </mxCell>
        <mxCell id="05fd0_lxoppkLTFNW6DU-23" value="&lt;span style=&quot;font-size: 10px&quot;&gt;if (Button)&lt;br&gt;&lt;div&gt;&lt;span&gt;/ Disable &quot;Wait&quot;&lt;/span&gt;&lt;/div&gt;Enable &quot;Asking&quot;&lt;br&gt;A = Check_stock_list(Button)&lt;br&gt;B = is_in_stock_list(Button)&lt;br&gt;&lt;br&gt;&lt;/span&gt;" style="text;html=1;strokeColor=none;fillColor=none;align=left;verticalAlign=middle;whiteSpace=wrap;rounded=0;" vertex="1" parent="1">
          <mxGeometry x="560" y="139" width="140" height="60" as="geometry" />
        </mxCell>
        <mxCell id="05fd0_lxoppkLTFNW6DU-25" value="&lt;span style=&quot;font-size: 10px&quot;&gt;if (Code)&lt;br&gt;&lt;div&gt;&lt;span&gt;/ Disable &quot;Wait&quot;&lt;/span&gt;&lt;/div&gt;Enable &quot;Wait Code&quot;&lt;br&gt;Code_input = append(Code)&amp;nbsp;&lt;br&gt;&lt;br&gt;&lt;/span&gt;" style="text;html=1;strokeColor=none;fillColor=none;align=left;verticalAlign=middle;whiteSpace=wrap;rounded=0;" vertex="1" parent="1">
          <mxGeometry x="1150" y="210" width="160" height="50" as="geometry" />
        </mxCell>
        <mxCell id="05fd0_lxoppkLTFNW6DU-27" value="&lt;span style=&quot;font-size: 10px&quot;&gt;if (Code &amp;amp;&amp;amp; length(Code_input)!=4)&lt;br&gt;/&amp;nbsp;Code_input = append(Code)&amp;nbsp;&lt;br&gt;&lt;br&gt;&lt;/span&gt;" style="text;html=1;strokeColor=none;fillColor=none;align=left;verticalAlign=middle;whiteSpace=wrap;rounded=0;" vertex="1" parent="1">
          <mxGeometry x="1180" y="460" width="160" height="60" as="geometry" />
        </mxCell>
        <mxCell id="05fd0_lxoppkLTFNW6DU-31" value="&lt;span style=&quot;font-size: 10px&quot;&gt;if (length(Code_input)==4)&lt;br&gt;/ Disable &quot;Wait Code&quot;&lt;br&gt;Enable &quot;Asking&quot;&lt;br&gt;C = Check_Code_list(Code_input)&lt;br&gt;status = code&lt;br&gt;&lt;/span&gt;" style="text;html=1;strokeColor=none;fillColor=none;align=left;verticalAlign=middle;whiteSpace=wrap;rounded=0;" vertex="1" parent="1">
          <mxGeometry x="940" y="400" width="160" height="60" as="geometry" />
        </mxCell>
        <mxCell id="05fd0_lxoppkLTFNW6DU-35" value="&lt;span style=&quot;font-size: 10px&quot;&gt;if (A)&lt;br&gt;&lt;div&gt;&lt;span&gt;/ Disable &quot;Asking&quot;&lt;/span&gt;&lt;/div&gt;Enable &quot;Wait Card&quot;&lt;br&gt;&lt;br&gt;&lt;/span&gt;" style="text;html=1;strokeColor=none;fillColor=none;align=left;verticalAlign=middle;whiteSpace=wrap;rounded=0;" vertex="1" parent="1">
          <mxGeometry x="392" y="236" width="120" height="60" as="geometry" />
        </mxCell>
        <mxCell id="05fd0_lxoppkLTFNW6DU-38" value="&lt;span style=&quot;font-size: 10px&quot;&gt;if (Money &amp;gt;= price(item) || C)&lt;br&gt;/ Disable &quot;Asking&quot;&lt;br&gt;Enable &quot;Serve item&quot;&amp;nbsp;&lt;br&gt;if (!C)&lt;br&gt;&amp;nbsp; discount(item, stock_list)&lt;br&gt;&lt;/span&gt;" style="text;html=1;strokeColor=none;fillColor=none;align=left;verticalAlign=middle;whiteSpace=wrap;rounded=0;" vertex="1" parent="1">
          <mxGeometry x="1640" y="370" width="160" height="60" as="geometry" />
        </mxCell>
        <mxCell id="05fd0_lxoppkLTFNW6DU-40" value="Disable &quot;Serve item&quot;&lt;br&gt;Enable &quot;Wait&quot;" style="text;html=1;strokeColor=none;fillColor=none;align=left;verticalAlign=middle;whiteSpace=wrap;rounded=0;" vertex="1" parent="1">
          <mxGeometry x="1640" y="90" width="160" height="60" as="geometry" />
        </mxCell>
        <mxCell id="05fd0_lxoppkLTFNW6DU-42" value="&lt;span style=&quot;font-size: 10px&quot;&gt;if (Card)&lt;br&gt;&lt;div&gt;&lt;span&gt;/ Disable &quot;Wait Card&quot;&lt;/span&gt;&lt;/div&gt;Enable &quot;Asking&quot;&lt;br&gt;Money = Check_card()&lt;br&gt;status = money&lt;br&gt;&lt;/span&gt;" style="text;html=1;strokeColor=none;fillColor=none;align=left;verticalAlign=middle;whiteSpace=wrap;rounded=0;" vertex="1" parent="1">
          <mxGeometry x="450" y="370" width="120" height="60" as="geometry" />
        </mxCell>
        <mxCell id="05fd0_lxoppkLTFNW6DU-44" value="&lt;span style=&quot;font-size: 10px&quot;&gt;if ((Money &amp;lt; price(item)) || !C)&lt;br&gt;&lt;div&gt;&lt;span&gt;/ Disable &quot;Asking&quot;&lt;/span&gt;&lt;/div&gt;Enable &quot;Wait&quot;&lt;br&gt;inform(User_message(status))&lt;br&gt;&lt;br&gt;&lt;/span&gt;" style="text;html=1;strokeColor=none;fillColor=none;align=left;verticalAlign=middle;whiteSpace=wrap;rounded=0;" vertex="1" parent="1">
          <mxGeometry x="630" y="310" width="180" height="60" as="geometry" />
        </mxCell>
        <mxCell id="05fd0_lxoppkLTFNW6DU-47" value="&lt;span style=&quot;font-size: 10px&quot;&gt;if (!A &amp;amp;&amp;amp; B)&lt;br&gt;&lt;div&gt;&lt;span&gt;/ Disable &quot;Asking&quot;&lt;/span&gt;&lt;/div&gt;Enable &quot;Request Stock&quot;&lt;br&gt;msg_protocol(src_id,0,1)&amp;nbsp;&lt;br&gt;&lt;br&gt;&lt;/span&gt;" style="text;html=1;strokeColor=none;fillColor=none;align=left;verticalAlign=middle;whiteSpace=wrap;rounded=0;" vertex="1" parent="1">
          <mxGeometry x="92" y="520" width="138" height="60" as="geometry" />
        </mxCell>
        <mxCell id="05fd0_lxoppkLTFNW6DU-57" value="&lt;span style=&quot;font-size: 10px&quot;&gt;if (!B)&lt;br&gt;&lt;div&gt;&lt;span&gt;/ Disable &quot;Asking&quot;&lt;/span&gt;&lt;/div&gt;Enable &quot;Request Sales List&quot;&lt;br&gt;msg_protocol(src_id,0,6)&amp;nbsp;&lt;br&gt;&lt;br&gt;&lt;/span&gt;" style="text;html=1;strokeColor=none;fillColor=none;align=left;verticalAlign=middle;whiteSpace=wrap;rounded=0;" vertex="1" parent="1">
          <mxGeometry x="310" y="520" width="140" height="60" as="geometry" />
        </mxCell>
        <mxCell id="05fd0_lxoppkLTFNW6DU-59" value="&lt;span style=&quot;font-size: 10px&quot;&gt;if (find_target(message_info))&lt;br&gt;&lt;div&gt;&lt;span&gt;/ Disable &quot;Request Stock&quot;&lt;/span&gt;&lt;/div&gt;Enable &quot;Request Address&quot;&lt;br&gt;dst_id = find_target(message_info)&lt;br&gt;msg_protocol(src_id, dst_id,4)&amp;nbsp;&lt;br&gt;status = advance&lt;br&gt;&lt;/span&gt;" style="text;html=1;strokeColor=none;fillColor=none;align=left;verticalAlign=middle;whiteSpace=wrap;rounded=0;" vertex="1" parent="1">
          <mxGeometry x="160" y="767" width="270" height="60" as="geometry" />
        </mxCell>
        <mxCell id="05fd0_lxoppkLTFNW6DU-61" value="&lt;span style=&quot;font-size: 10px&quot;&gt;if (find_target(message_info))&lt;br&gt;&lt;div&gt;&lt;span&gt;/ Disable &quot;Request Sales List&quot;&lt;/span&gt;&lt;/div&gt;Enable &quot;Request Address&quot;&lt;br&gt;dst_id = find_target(message_info)&lt;br&gt;msg_protocol(src_id, dst_id, 6)&amp;nbsp;&lt;br&gt;status = advance&lt;br&gt;&lt;/span&gt;" style="text;html=1;strokeColor=none;fillColor=none;align=left;verticalAlign=middle;whiteSpace=wrap;rounded=0;" vertex="1" parent="1">
          <mxGeometry x="440" y="767" width="190" height="60" as="geometry" />
        </mxCell>
        <mxCell id="05fd0_lxoppkLTFNW6DU-66" value="&lt;span style=&quot;font-size: 10px&quot;&gt;if ((message_info))&lt;br&gt;&lt;div&gt;&lt;span&gt;/ Disable &quot;Request Address&quot;&lt;/span&gt;&lt;/div&gt;Enable &quot;Wait Card&quot;&lt;br&gt;inform(User_message(status)&lt;br&gt;&lt;br&gt;&lt;/span&gt;" style="text;html=1;strokeColor=none;fillColor=none;align=left;verticalAlign=middle;whiteSpace=wrap;rounded=0;" vertex="1" parent="1">
          <mxGeometry x="60" y="400" width="270" height="60" as="geometry" />
        </mxCell>
        <mxCell id="05fd0_lxoppkLTFNW6DU-72" style="edgeStyle=orthogonalEdgeStyle;rounded=0;orthogonalLoop=1;jettySize=auto;html=1;exitX=0.5;exitY=1;exitDx=0;exitDy=0;entryX=0.5;entryY=0;entryDx=0;entryDy=0;" edge="1" parent="1" source="05fd0_lxoppkLTFNW6DU-68" target="05fd0_lxoppkLTFNW6DU-9">
          <mxGeometry relative="1" as="geometry" />
        </mxCell>
        <mxCell id="05fd0_lxoppkLTFNW6DU-68" value="Serve Code" style="rounded=1;whiteSpace=wrap;html=1;" vertex="1" parent="1">
          <mxGeometry x="1470" y="530" width="102" height="40" as="geometry" />
        </mxCell>
        <mxCell id="05fd0_lxoppkLTFNW6DU-69" value="&lt;span style=&quot;font-size: 10px&quot;&gt;if (status == advance &amp;amp;&amp;amp; ((Money &amp;gt;= price(item)))&lt;br&gt;/ Disable &quot;Asking&quot;&lt;br&gt;Enable &quot;Serve Code&quot;&lt;br&gt;discount(item, stock_list)&amp;nbsp;&lt;br&gt;&lt;br&gt;&lt;/span&gt;" style="text;html=1;strokeColor=none;fillColor=none;align=left;verticalAlign=middle;whiteSpace=wrap;rounded=0;" vertex="1" parent="1">
          <mxGeometry x="1390" y="370" width="280" height="60" as="geometry" />
        </mxCell>
        <mxCell id="05fd0_lxoppkLTFNW6DU-73" value="&lt;span style=&quot;font-size: 10px&quot;&gt;Disable &quot;Serve Code&quot;&lt;br&gt;Enable &quot;Advance Payment&quot;&lt;br&gt;msg_protocol(src_id, dst_id, 3, code)&lt;br&gt;&lt;/span&gt;" style="text;html=1;strokeColor=none;fillColor=none;align=left;verticalAlign=middle;whiteSpace=wrap;rounded=0;" vertex="1" parent="1">
          <mxGeometry x="1532" y="580" width="280" height="60" as="geometry" />
        </mxCell>
        <mxCell id="05fd0_lxoppkLTFNW6DU-78" value="&lt;span style=&quot;font-size: 10px&quot;&gt;Disable &quot;Advance Payment&quot;&lt;br&gt;Enable &quot;Wait&quot;&lt;br&gt;&lt;/span&gt;" style="text;html=1;strokeColor=none;fillColor=none;align=left;verticalAlign=middle;whiteSpace=wrap;rounded=0;" vertex="1" parent="1">
          <mxGeometry x="1350" y="590" width="130" height="60" as="geometry" />
        </mxCell>
        <mxCell id="05fd0_lxoppkLTFNW6DU-99" style="edgeStyle=orthogonalEdgeStyle;rounded=0;orthogonalLoop=1;jettySize=auto;html=1;exitX=0.5;exitY=0;exitDx=0;exitDy=0;" edge="1" parent="1" source="05fd0_lxoppkLTFNW6DU-85">
          <mxGeometry relative="1" as="geometry">
            <mxPoint x="1129.9999999999995" y="160" as="targetPoint" />
            <Array as="points">
              <mxPoint x="1263" y="1010" />
              <mxPoint x="1130" y="1010" />
            </Array>
          </mxGeometry>
        </mxCell>
        <mxCell id="05fd0_lxoppkLTFNW6DU-85" value="Save Code" style="rounded=1;whiteSpace=wrap;html=1;" vertex="1" parent="1">
          <mxGeometry x="1212" y="990" width="102" height="40" as="geometry" />
        </mxCell>
        <mxCell id="05fd0_lxoppkLTFNW6DU-87" value="&lt;span style=&quot;font-size: 10px&quot;&gt;if(message == 6)&lt;br&gt;/ Disable &quot;Wait&quot;&lt;br&gt;Enable &quot;Check Sales List&quot;&lt;br&gt;&lt;/span&gt;" style="text;html=1;strokeColor=none;fillColor=none;align=left;verticalAlign=middle;whiteSpace=wrap;rounded=0;" vertex="1" parent="1">
          <mxGeometry x="630" y="720" width="280" height="60" as="geometry" />
        </mxCell>
        <mxCell id="05fd0_lxoppkLTFNW6DU-91" value="&lt;span style=&quot;font-size: 10px&quot;&gt;Disable &quot;Check Sales List&quot;&lt;br&gt;Enable &quot;Wait&quot;&lt;br&gt;msg_protocol(src_id, dst_id, 7)&lt;br&gt;&lt;/span&gt;" style="text;html=1;strokeColor=none;fillColor=none;align=left;verticalAlign=middle;whiteSpace=wrap;rounded=0;" vertex="1" parent="1">
          <mxGeometry x="778" y="720" width="280" height="60" as="geometry" />
        </mxCell>
        <mxCell id="05fd0_lxoppkLTFNW6DU-92" value="&lt;span style=&quot;font-size: 10px&quot;&gt;if(message == 4)&lt;br&gt;/ Disable &quot;Wait&quot;&lt;br&gt;Enable &quot;Check Address&quot;&lt;br&gt;&lt;/span&gt;" style="text;html=1;strokeColor=none;fillColor=none;align=left;verticalAlign=middle;whiteSpace=wrap;rounded=0;" vertex="1" parent="1">
          <mxGeometry x="761" y="940" width="119" height="60" as="geometry" />
        </mxCell>
        <mxCell id="05fd0_lxoppkLTFNW6DU-94" value="&lt;span style=&quot;font-size: 10px&quot;&gt;Disable &quot;Check Address&quot;&lt;/span&gt;&lt;span style=&quot;font-size: 10px&quot;&gt;&lt;br&gt;Enable &quot;Wait&quot;&lt;br&gt;msg_protocol(src_id, dst_id, 5)&lt;br&gt;&lt;/span&gt;" style="text;html=1;strokeColor=none;fillColor=none;align=left;verticalAlign=middle;whiteSpace=wrap;rounded=0;" vertex="1" parent="1">
          <mxGeometry x="887.5" y="920" width="147" height="60" as="geometry" />
        </mxCell>
        <mxCell id="05fd0_lxoppkLTFNW6DU-95" value="&lt;span style=&quot;font-size: 10px&quot;&gt;Disable &quot;Check Stock&quot;&lt;/span&gt;&lt;span style=&quot;font-size: 10px&quot;&gt;&lt;br&gt;Enable &quot;Wait&quot;&lt;br&gt;msg_protocol(src_id, dst_id, 2)&lt;br&gt;&lt;/span&gt;" style="text;html=1;strokeColor=none;fillColor=none;align=left;verticalAlign=middle;whiteSpace=wrap;rounded=0;" vertex="1" parent="1">
          <mxGeometry x="1100" y="1100" width="147" height="60" as="geometry" />
        </mxCell>
        <mxCell id="05fd0_lxoppkLTFNW6DU-97" value="&lt;span style=&quot;font-size: 10px&quot;&gt;if(message == 1)&lt;br&gt;Disable&amp;nbsp;&lt;/span&gt;&lt;span style=&quot;font-size: 10px&quot;&gt;&quot;Wait&quot;&lt;/span&gt;&lt;span style=&quot;font-size: 10px&quot;&gt;&lt;br&gt;Enable &lt;/span&gt;&lt;span style=&quot;font-size: 10px&quot;&gt;&quot;Check Stock&quot;&lt;/span&gt;&lt;span style=&quot;font-size: 10px&quot;&gt;&lt;br&gt;&lt;/span&gt;" style="text;html=1;strokeColor=none;fillColor=none;align=left;verticalAlign=middle;whiteSpace=wrap;rounded=0;" vertex="1" parent="1">
          <mxGeometry x="963" y="1100" width="147" height="60" as="geometry" />
        </mxCell>
        <mxCell id="05fd0_lxoppkLTFNW6DU-98" value="&lt;span style=&quot;font-size: 10px&quot;&gt;if(message == 3)&lt;br&gt;Disable&amp;nbsp;&lt;/span&gt;&lt;span style=&quot;font-size: 10px&quot;&gt;&quot;Wait&quot;&lt;/span&gt;&lt;span style=&quot;font-size: 10px&quot;&gt;&lt;br&gt;Enable &lt;/span&gt;&lt;span style=&quot;font-size: 10px&quot;&gt;&quot;Save Code&quot;&lt;br&gt;&lt;/span&gt;&lt;span style=&quot;font-size: 10px&quot;&gt;append(Code_list(message_info))&lt;br&gt;&lt;/span&gt;" style="text;html=1;strokeColor=none;fillColor=none;align=left;verticalAlign=middle;whiteSpace=wrap;rounded=0;" vertex="1" parent="1">
          <mxGeometry x="1323" y="900" width="147" height="60" as="geometry" />
        </mxCell>
        <mxCell id="05fd0_lxoppkLTFNW6DU-2" value="wait code" style="rounded=1;whiteSpace=wrap;html=1;" vertex="1" parent="1">
          <mxGeometry x="1110" y="410" width="102" height="40" as="geometry" />
        </mxCell>
        <mxCell id="05fd0_lxoppkLTFNW6DU-100" value="&lt;span style=&quot;font-size: 10px&quot;&gt;Disable &quot;Save Code&quot;&lt;/span&gt;&lt;span style=&quot;font-size: 10px&quot;&gt;&lt;br&gt;Enable &quot;Wait&quot;&lt;br&gt;&lt;/span&gt;" style="text;html=1;strokeColor=none;fillColor=none;align=left;verticalAlign=middle;whiteSpace=wrap;rounded=0;" vertex="1" parent="1">
          <mxGeometry x="1131" y="894" width="147" height="60" as="geometry" />
        </mxCell>
      </root>
    </mxGraphModel>
  </diagram>
</mxfile>
